<?xml version="1.0" encoding="utf-8"?>
<!-- Generator: Adobe Illustrator 15.0.0, SVG Export Plug-In . SVG Version: 6.00 Build 0)  -->
<!DOCTYPE svg PUBLIC "-//W3C//DTD SVG 1.1//EN" "http://www.w3.org/Graphics/SVG/1.1/DTD/svg11.dtd">
<svg version="1.1" id="レイヤー_1" xmlns="http://www.w3.org/2000/svg" xmlns:xlink="http://www.w3.org/1999/xlink" x="0px"
	 y="0px" width="28.347px" height="28.347px" viewBox="0 0 28.347 28.347" enable-background="new 0 0 28.347 28.347"
	 xml:space="preserve">
<g>
	<g>
		<path fill="#E55457" d="M14.173,8.526c-0.235,0.004-0.742-0.309-0.844-0.955c-0.112-0.045-0.235,0.079-0.235,0.079
			s-1.634,0.38-1.791,0.425c-0.156,0.045-0.168,0.112-0.168,0.112L9.132,9.16c0,0-0.18,0.09-0.157,0.112
			c0.022,0.023,0.806,1.836,0.806,1.836s0.19-0.044,0.235-0.044s1.142,0,1.187,0s0.033,1.231,0.022,1.466
			c-0.012,0.235,0,2.721-0.012,3.123c-0.011,0.403-0.033,0.582,0.012,0.582s1.97,0.045,2.406,0.057c0.437,0.011,0.896-0.012,0.996,0
			c0.102,0.011,2.675,0.021,2.744,0c0.066-0.023-0.08-2.821-0.068-3.045s-0.012-2.004-0.057-2.082
			c0.18-0.011,1.232-0.011,1.232-0.011s0.168,0.067,0.201,0.045s0.471-1.366,0.537-1.478c0.066-0.112,0.158-0.37,0.158-0.37
			l-0.17-0.123c0,0-1.969-0.851-2.059-0.907c-0.09-0.056-0.189-0.067-0.189-0.067s-1.4-0.493-1.479-0.515
			c-0.078-0.022-0.235-0.123-0.291-0.134C15.131,7.593,14.89,8.515,14.173,8.526z"/>
	</g>
	<g>
		<path fill="#E55457" d="M14.173,24.152c-5.503,0-9.979-4.477-9.979-9.979c0-5.502,4.476-9.979,9.979-9.979
			c5.502,0,9.979,4.477,9.979,9.979C24.152,19.676,19.676,24.152,14.173,24.152z M14.173,5.375c-4.852,0-8.798,3.947-8.798,8.798
			c0,4.852,3.946,8.798,8.798,8.798c4.852,0,8.799-3.946,8.799-8.798C22.973,9.322,19.025,5.375,14.173,5.375z"/>
	</g>
	<g>
		<path fill="#E55457" d="M12.204,17.842c0.176,0.17,0.272,0.362,0.292,0.578h-0.335c-0.038-0.164-0.112-0.293-0.224-0.389
			s-0.269-0.145-0.47-0.145c-0.246,0-0.444,0.088-0.596,0.264c-0.15,0.177-0.227,0.446-0.227,0.81c0,0.298,0.068,0.54,0.205,0.725
			c0.136,0.185,0.34,0.278,0.61,0.278c0.249,0,0.439-0.098,0.569-0.293c0.069-0.103,0.121-0.237,0.154-0.404h0.336
			c-0.029,0.268-0.128,0.492-0.294,0.672c-0.199,0.219-0.469,0.328-0.808,0.328c-0.291,0-0.536-0.09-0.734-0.27
			c-0.262-0.236-0.392-0.602-0.392-1.095c0-0.375,0.098-0.683,0.294-0.923c0.212-0.26,0.504-0.391,0.877-0.391
			C11.781,17.588,12.028,17.672,12.204,17.842z"/>
		<path fill="#E55457" d="M12.931,17.656h0.312v2.541h-0.312V17.656z"/>
		<path fill="#E55457" d="M15.052,18.53c0.163,0.159,0.245,0.393,0.245,0.701c0,0.298-0.072,0.545-0.216,0.739
			c-0.145,0.195-0.369,0.293-0.672,0.293c-0.253,0-0.454-0.086-0.603-0.259c-0.149-0.173-0.224-0.403-0.224-0.694
			c0-0.311,0.079-0.559,0.235-0.742c0.157-0.185,0.367-0.277,0.632-0.277C14.688,18.291,14.888,18.371,15.052,18.53z M14.859,19.762
			c0.076-0.156,0.113-0.33,0.113-0.521c0-0.173-0.026-0.312-0.082-0.422c-0.087-0.17-0.236-0.256-0.448-0.256
			c-0.188,0-0.324,0.073-0.41,0.219c-0.085,0.145-0.128,0.32-0.128,0.525c0,0.196,0.043,0.36,0.128,0.492
			c0.086,0.131,0.221,0.196,0.407,0.196C14.643,19.995,14.783,19.917,14.859,19.762z"/>
		<path fill="#E55457" d="M15.742,17.828h0.314v0.518h0.295V18.6h-0.295v1.209c0,0.064,0.021,0.107,0.066,0.129
			c0.023,0.014,0.064,0.02,0.121,0.02c0.014,0,0.031,0,0.047-0.001c0.018-0.001,0.039-0.003,0.061-0.006v0.247
			c-0.035,0.011-0.072,0.018-0.111,0.023c-0.037,0.004-0.08,0.006-0.125,0.006c-0.145,0-0.244-0.037-0.295-0.111
			c-0.053-0.074-0.078-0.171-0.078-0.289V18.6h-0.25v-0.254h0.25V17.828z"/>
		<path fill="#E55457" d="M16.664,17.648h0.311v0.947c0.074-0.093,0.141-0.158,0.199-0.197c0.1-0.065,0.227-0.098,0.375-0.098
			c0.27,0,0.451,0.094,0.547,0.281c0.053,0.103,0.078,0.245,0.078,0.428v1.188h-0.32V19.03c0-0.136-0.018-0.235-0.053-0.3
			c-0.057-0.102-0.162-0.152-0.316-0.152c-0.131,0-0.246,0.045-0.352,0.134s-0.158,0.257-0.158,0.503v0.982h-0.311V17.648z"/>
	</g>
</g>
</svg>
