<?xml version="1.0" encoding="utf-8"?>
<!-- Generator: Adobe Illustrator 15.0.0, SVG Export Plug-In . SVG Version: 6.00 Build 0)  -->
<!DOCTYPE svg PUBLIC "-//W3C//DTD SVG 1.1//EN" "http://www.w3.org/Graphics/SVG/1.1/DTD/svg11.dtd">
<svg version="1.1" id="レイヤー_1" xmlns="http://www.w3.org/2000/svg" xmlns:xlink="http://www.w3.org/1999/xlink" x="0px"
	 y="0px" width="28.347px" height="28.347px" viewBox="0 0 28.347 28.347" enable-background="new 0 0 28.347 28.347"
	 xml:space="preserve">
<g>
	<g>
		<g>
			<path fill="#E55457" d="M15.798,11.086h-3.249c-0.382,0-0.691,0.309-0.691,0.691v0.704c0,0.127,0.104,0.23,0.231,0.23h4.17
				c0.127,0,0.23-0.103,0.23-0.23v-0.704C16.489,11.396,16.18,11.086,15.798,11.086z"/>
		</g>
		<g>
			<path fill="#E55457" d="M13.229,12.86h-0.83c0,0-0.069,0.483,0.242,1.383c0.311,0.898-0.046,0.726-0.161,0.702
				c-0.217-0.043-0.381,0.381,0.034,0.52c0.415,0.138,0.795-0.357,0.703-1.141C13.104,13.363,13.229,12.86,13.229,12.86z"/>
		</g>
		<g>
			<path fill="#E55457" d="M15.867,14.945c-0.115,0.023-0.473,0.196-0.161-0.702c0.311-0.899,0.241-1.383,0.241-1.383h-0.829
				c0,0,0.124,0.503,0.012,1.464c-0.093,0.783,0.288,1.278,0.702,1.141C16.247,15.326,16.084,14.902,15.867,14.945z"/>
		</g>
		<g>
			<path fill="#E55457" d="M15.799,10.924c0-0.325,1.272-3.818-1.625-3.818c-2.898,0-1.625,3.494-1.625,3.818H15.799z"/>
		</g>
	</g>
	<g>
		<path fill="#E55457" d="M14.174,24.152c-5.503,0-9.979-4.477-9.979-9.979c0-5.503,4.477-9.979,9.979-9.979
			c5.502,0,9.979,4.477,9.979,9.979C24.152,19.676,19.676,24.152,14.174,24.152z M14.174,5.375c-4.852,0-8.799,3.947-8.799,8.799
			c0,4.851,3.947,8.797,8.799,8.797s8.798-3.946,8.798-8.797C22.972,9.322,19.025,5.375,14.174,5.375z"/>
	</g>
	<g>
		<path fill="#E55457" d="M8.372,18.02h1.511v0.268H8.667v0.66h1.068v0.26H8.667v0.99H8.372V18.02z"/>
		<path fill="#E55457" d="M10.43,18.609v1.055c0,0.081,0.013,0.147,0.037,0.199c0.047,0.094,0.133,0.142,0.259,0.142
			c0.181,0,0.305-0.083,0.37-0.249c0.035-0.089,0.053-0.211,0.053-0.366v-0.78h0.267v1.588h-0.251l0.003-0.234
			c-0.034,0.061-0.077,0.111-0.127,0.153c-0.101,0.083-0.222,0.124-0.364,0.124c-0.222,0-0.373-0.075-0.453-0.227
			c-0.044-0.081-0.065-0.189-0.065-0.324v-1.08H10.43z"/>
		<path fill="#E55457" d="M11.858,18.609h0.254v0.275c0.021-0.054,0.071-0.119,0.152-0.195s0.175-0.115,0.28-0.115
			c0.005,0,0.014,0.001,0.025,0.002s0.032,0.003,0.061,0.006v0.281c-0.016-0.002-0.03-0.005-0.044-0.006
			c-0.013-0.001-0.027-0.002-0.043-0.002c-0.135,0-0.238,0.044-0.31,0.131c-0.072,0.086-0.108,0.186-0.108,0.299v0.912h-0.268
			V18.609z"/>
		<path fill="#E55457" d="M12.862,18.609h0.254v0.227c0.075-0.094,0.154-0.16,0.238-0.201c0.084-0.04,0.178-0.061,0.28-0.061
			c0.226,0,0.378,0.078,0.457,0.236c0.043,0.086,0.064,0.209,0.064,0.369v1.018h-0.271v-1c0-0.098-0.015-0.176-0.044-0.234
			c-0.047-0.099-0.133-0.148-0.258-0.148c-0.062,0-0.115,0.006-0.155,0.02c-0.073,0.021-0.138,0.064-0.193,0.131
			c-0.044,0.052-0.073,0.105-0.086,0.162c-0.014,0.056-0.021,0.135-0.021,0.239v0.831h-0.267V18.609z"/>
		<path fill="#E55457" d="M14.551,18.02h0.271v0.303h-0.271V18.02z M14.551,18.617h0.271v1.58h-0.271V18.617z"/>
		<path fill="#E55457" d="M15.278,18.167h0.27v0.442h0.254v0.219h-0.254v1.036c0,0.056,0.02,0.093,0.057,0.111
			c0.021,0.011,0.056,0.017,0.104,0.017c0.012,0,0.026-0.001,0.041-0.002c0.015,0,0.032-0.002,0.052-0.004v0.211
			c-0.03,0.01-0.062,0.016-0.096,0.02s-0.068,0.006-0.107,0.006c-0.124,0-0.209-0.031-0.254-0.096
			c-0.044-0.063-0.066-0.146-0.066-0.248v-1.051h-0.215v-0.219h0.215V18.167z"/>
		<path fill="#E55457" d="M16.336,18.609v1.055c0,0.081,0.012,0.147,0.037,0.199c0.046,0.094,0.132,0.142,0.259,0.142
			c0.181,0,0.304-0.083,0.369-0.249c0.036-0.089,0.054-0.211,0.054-0.366v-0.78h0.267v1.588h-0.252l0.003-0.234
			c-0.034,0.061-0.076,0.111-0.127,0.153c-0.1,0.083-0.221,0.124-0.363,0.124c-0.222,0-0.373-0.075-0.454-0.227
			c-0.044-0.081-0.065-0.189-0.065-0.324v-1.08H16.336z"/>
		<path fill="#E55457" d="M17.765,18.609h0.253v0.275c0.021-0.054,0.072-0.119,0.153-0.195s0.174-0.115,0.28-0.115
			c0.005,0,0.013,0.001,0.025,0.002c0.012,0.001,0.031,0.003,0.061,0.006v0.281c-0.016-0.002-0.031-0.005-0.044-0.006
			c-0.014-0.001-0.028-0.002-0.044-0.002c-0.134,0-0.237,0.044-0.31,0.131c-0.072,0.086-0.108,0.186-0.108,0.299v0.912h-0.267
			V18.609z"/>
		<path fill="#E55457" d="M19.749,18.654c0.104,0.053,0.185,0.121,0.24,0.205c0.053,0.08,0.088,0.174,0.105,0.279
			c0.016,0.074,0.023,0.19,0.023,0.351h-1.154c0.005,0.161,0.042,0.291,0.113,0.389c0.07,0.098,0.18,0.146,0.328,0.146
			c0.138,0,0.248-0.046,0.331-0.139c0.046-0.054,0.078-0.116,0.098-0.187h0.263c-0.007,0.059-0.03,0.123-0.069,0.195
			s-0.082,0.13-0.131,0.176c-0.08,0.079-0.18,0.133-0.299,0.16c-0.063,0.016-0.136,0.023-0.216,0.023
			c-0.196,0-0.363-0.072-0.499-0.216c-0.137-0.144-0.205-0.345-0.205-0.604c0-0.254,0.068-0.461,0.206-0.621
			c0.138-0.158,0.317-0.238,0.539-0.238C19.535,18.574,19.644,18.602,19.749,18.654z M19.845,19.277
			c-0.012-0.115-0.036-0.209-0.075-0.277c-0.073-0.129-0.193-0.193-0.363-0.193c-0.121,0-0.224,0.045-0.306,0.133
			c-0.083,0.089-0.126,0.201-0.131,0.338H19.845z"/>
	</g>
</g>
</svg>
