<?xml version="1.0" encoding="utf-8"?>
<!-- Generator: Adobe Illustrator 15.0.0, SVG Export Plug-In . SVG Version: 6.00 Build 0)  -->
<!DOCTYPE svg PUBLIC "-//W3C//DTD SVG 1.1//EN" "http://www.w3.org/Graphics/SVG/1.1/DTD/svg11.dtd">
<svg version="1.1" id="レイヤー_1" xmlns="http://www.w3.org/2000/svg" xmlns:xlink="http://www.w3.org/1999/xlink" x="0px"
	 y="0px" width="28.347px" height="28.347px" viewBox="0 0 28.347 28.347" enable-background="new 0 0 28.347 28.347"
	 xml:space="preserve">
<g>
	<g>
		<path fill="#E55457" d="M14.173,24.152c-5.502,0-9.979-4.477-9.979-9.979c0-5.502,4.477-9.979,9.979-9.979
			c5.502,0,9.979,4.477,9.979,9.979C24.152,19.676,19.676,24.152,14.173,24.152z M14.173,5.375c-4.852,0-8.798,3.947-8.798,8.798
			c0,4.852,3.946,8.798,8.798,8.798c4.852,0,8.797-3.946,8.797-8.798C22.971,9.322,19.025,5.375,14.173,5.375z"/>
	</g>
	<g>
		<path fill="#E55457" d="M10.368,18.02h0.295v1.918h1.093v0.26h-1.388V18.02z"/>
		<path fill="#E55457" d="M12.021,18.02h0.271v0.303h-0.271V18.02z M12.021,18.617h0.271v1.58h-0.271V18.617z"/>
		<path fill="#E55457" d="M13.59,18.674c0.05,0.035,0.097,0.088,0.143,0.156v-0.221h0.252v2.221h-0.267v-0.814
			c-0.045,0.07-0.106,0.127-0.185,0.169s-0.176,0.063-0.294,0.063c-0.169,0-0.319-0.066-0.453-0.199s-0.2-0.334-0.2-0.604
			c0-0.254,0.062-0.462,0.188-0.626c0.125-0.162,0.287-0.244,0.485-0.244C13.39,18.574,13.5,18.607,13.59,18.674z M12.923,19.771
			c0.068,0.165,0.19,0.247,0.366,0.247c0.185,0,0.312-0.086,0.383-0.26c0.038-0.097,0.058-0.219,0.058-0.368
			c0-0.138-0.021-0.252-0.063-0.345c-0.072-0.156-0.199-0.234-0.381-0.234c-0.115,0-0.214,0.05-0.297,0.15
			c-0.082,0.1-0.123,0.254-0.123,0.465C12.866,19.562,12.885,19.678,12.923,19.771z"/>
		<path fill="#E55457" d="M14.65,18.609v1.055c0,0.08,0.013,0.146,0.038,0.198c0.046,0.095,0.132,0.142,0.258,0.142
			c0.182,0,0.305-0.082,0.37-0.248c0.036-0.089,0.054-0.211,0.054-0.366v-0.78h0.267v1.588h-0.252l0.003-0.234
			c-0.034,0.061-0.076,0.111-0.127,0.152c-0.1,0.084-0.221,0.125-0.363,0.125c-0.223,0-0.373-0.075-0.454-0.227
			c-0.043-0.081-0.065-0.189-0.065-0.324v-1.08H14.65z"/>
		<path fill="#E55457" d="M16.072,18.02h0.271v0.303h-0.271V18.02z M16.072,18.617h0.271v1.58h-0.271V18.617z"/>
		<path fill="#E55457" d="M17.619,18.658c0.047,0.03,0.1,0.082,0.16,0.156v-0.802h0.258v2.185h-0.24v-0.221
			c-0.062,0.098-0.137,0.168-0.221,0.212c-0.086,0.044-0.182,0.065-0.291,0.065c-0.176,0-0.328-0.074-0.457-0.223
			c-0.129-0.149-0.193-0.348-0.193-0.594c0-0.232,0.059-0.432,0.176-0.602s0.285-0.254,0.504-0.254
			C17.436,18.582,17.537,18.607,17.619,18.658z M17.023,19.85c0.07,0.114,0.186,0.172,0.346,0.172c0.121,0,0.223-0.054,0.303-0.16
			c0.078-0.105,0.117-0.258,0.117-0.457c0-0.201-0.039-0.35-0.121-0.445s-0.184-0.145-0.303-0.145c-0.133,0-0.242,0.051-0.324,0.154
			c-0.084,0.103-0.125,0.254-0.125,0.453C16.916,19.592,16.951,19.734,17.023,19.85z"/>
	</g>
	<g>
		<path fill="#E55457" d="M15.691,15.062c-0.016-0.105-0.061-0.382-0.076-0.475c-0.016-0.092-0.092-0.264-0.105-0.461
			c-0.016-0.197,0.074-0.776,0.105-0.922c0.029-0.145,0.061-0.368,0.061-0.461s-0.016-1.844,0-1.989
			c0.002-0.029,0-0.605-0.045-0.777c-0.047-0.171-0.741-1.396-0.741-1.396l-0.045-0.185c0,0,0.045-0.105,0.091-0.172L14.92,8.146
			c0,0,0.016-0.396,0.016-0.436c0-0.039,0.015-0.157-0.046-0.21s-0.37-0.079-0.717-0.079c-0.348,0-0.657,0.026-0.718,0.079
			s-0.045,0.171-0.045,0.21c0,0.04,0.015,0.436,0.015,0.436l-0.015,0.078c0.045,0.066,0.091,0.172,0.091,0.172l-0.046,0.185
			c0,0-0.694,1.225-0.739,1.396c-0.046,0.172-0.049,0.748-0.046,0.777c0.016,0.146,0,1.896,0,1.989s0.03,0.316,0.061,0.461
			c0.03,0.146,0.121,0.725,0.105,0.922c-0.015,0.197-0.09,0.369-0.105,0.461c-0.015,0.093-0.061,0.369-0.075,0.475
			s-0.015,0.355-0.015,0.632c0,0.277,0.136,0.765,0.543,0.738c0.332,0.132,0.785,0.053,0.891,0.026c0.066,0,0.089,0,0.097,0
			c0.001,0,0.001,0,0.002,0s0.002,0,0.002,0c0.007,0,0.03,0,0.096,0c0.105,0.026,0.559,0.105,0.891-0.026
			c0.409,0.026,0.543-0.461,0.543-0.738C15.705,15.417,15.705,15.167,15.691,15.062z"/>
	</g>
</g>
</svg>
