<?xml version="1.0" encoding="utf-8"?>
<!-- Generator: Adobe Illustrator 15.0.0, SVG Export Plug-In . SVG Version: 6.00 Build 0)  -->
<!DOCTYPE svg PUBLIC "-//W3C//DTD SVG 1.1//EN" "http://www.w3.org/Graphics/SVG/1.1/DTD/svg11.dtd">
<svg version="1.1" id="レイヤー_1" xmlns="http://www.w3.org/2000/svg" xmlns:xlink="http://www.w3.org/1999/xlink" x="0px"
	 y="0px" width="28.347px" height="28.347px" viewBox="0 0 28.347 28.347" enable-background="new 0 0 28.347 28.347"
	 xml:space="preserve">
<g>
	<g>
		<path fill="#E55457" d="M14.173,24.152c-5.502,0-9.979-4.477-9.979-9.979s4.477-9.979,9.979-9.979
			c5.502,0,9.979,4.476,9.979,9.979S19.676,24.152,14.173,24.152z M14.173,5.375c-4.852,0-8.798,3.947-8.798,8.798
			c0,4.852,3.946,8.799,8.798,8.799c4.852,0,8.799-3.947,8.799-8.799C22.973,9.322,19.025,5.375,14.173,5.375z"/>
	</g>
	<g>
		<path fill="#E55457" d="M11.969,12.903c0.169,0.225,0.253,0.512,0.253,0.863c0,0.38-0.097,0.694-0.289,0.946
			c-0.226,0.295-0.549,0.442-0.967,0.442c-0.391,0-0.698-0.129-0.922-0.388c-0.199-0.248-0.299-0.563-0.299-0.943
			c0-0.344,0.085-0.639,0.256-0.882c0.219-0.314,0.543-0.471,0.972-0.471C11.421,12.471,11.754,12.615,11.969,12.903z
			 M11.666,14.523c0.136-0.219,0.203-0.468,0.203-0.751c0-0.299-0.078-0.539-0.234-0.722c-0.155-0.182-0.369-0.273-0.641-0.273
			c-0.263,0-0.478,0.09-0.643,0.271c-0.166,0.18-0.249,0.446-0.249,0.799c0,0.281,0.071,0.519,0.214,0.712
			c0.142,0.193,0.372,0.29,0.691,0.29C11.311,14.849,11.531,14.74,11.666,14.523z"/>
		<path fill="#E55457" d="M12.652,12.711h0.315v0.517h0.296v0.254h-0.296v1.209c0,0.064,0.021,0.108,0.065,0.131
			c0.024,0.012,0.064,0.019,0.121,0.019c0.016,0,0.031-0.001,0.049-0.001c0.018-0.001,0.037-0.003,0.061-0.006v0.247
			c-0.036,0.011-0.073,0.019-0.111,0.022c-0.039,0.004-0.081,0.007-0.126,0.007c-0.146,0-0.243-0.037-0.296-0.111
			c-0.052-0.075-0.078-0.171-0.078-0.29v-1.227h-0.25v-0.254h0.25V12.711z"/>
		<path fill="#E55457" d="M13.575,12.531h0.311v0.948c0.074-0.093,0.14-0.159,0.199-0.197c0.101-0.065,0.226-0.099,0.375-0.099
			c0.269,0,0.451,0.094,0.547,0.282c0.052,0.103,0.077,0.245,0.077,0.427v1.188h-0.319v-1.167c0-0.137-0.018-0.236-0.052-0.3
			c-0.057-0.101-0.163-0.151-0.318-0.151c-0.129,0-0.246,0.044-0.352,0.133c-0.104,0.088-0.157,0.256-0.157,0.503v0.982h-0.311
			V12.531z"/>
		<path fill="#E55457" d="M16.688,13.279c0.123,0.062,0.217,0.143,0.281,0.24c0.062,0.094,0.104,0.202,0.123,0.326
			c0.02,0.086,0.027,0.223,0.027,0.408h-1.346c0.004,0.189,0.049,0.34,0.131,0.454s0.211,0.171,0.383,0.171
			c0.162,0,0.291-0.055,0.387-0.162c0.053-0.062,0.092-0.135,0.113-0.217h0.307c-0.008,0.068-0.035,0.145-0.08,0.228
			c-0.047,0.083-0.096,0.151-0.152,0.204c-0.094,0.093-0.211,0.155-0.35,0.188c-0.074,0.018-0.158,0.027-0.252,0.027
			c-0.229,0-0.424-0.084-0.582-0.252c-0.16-0.167-0.239-0.402-0.239-0.704c0-0.298,0.081-0.539,0.241-0.725
			c0.16-0.187,0.369-0.278,0.629-0.278C16.439,13.187,16.566,13.218,16.688,13.279z M16.799,14.006
			c-0.012-0.135-0.041-0.243-0.086-0.323c-0.086-0.15-0.227-0.225-0.424-0.225c-0.143,0-0.262,0.051-0.357,0.154
			s-0.146,0.234-0.152,0.394H16.799z"/>
		<path fill="#E55457" d="M17.523,13.228h0.295v0.32c0.025-0.062,0.084-0.139,0.178-0.228c0.096-0.089,0.205-0.134,0.328-0.134
			c0.006,0,0.016,0,0.029,0.002c0.014,0,0.037,0.003,0.07,0.006v0.329c-0.018-0.003-0.035-0.006-0.051-0.007
			s-0.033-0.002-0.051-0.002c-0.158,0-0.277,0.051-0.361,0.151s-0.127,0.218-0.127,0.349v1.065h-0.311V13.228z"/>
	</g>
</g>
</svg>
