<?xml version="1.0" encoding="utf-8"?>
<!-- Generator: Adobe Illustrator 15.0.0, SVG Export Plug-In . SVG Version: 6.00 Build 0)  -->
<!DOCTYPE svg PUBLIC "-//W3C//DTD SVG 1.1//EN" "http://www.w3.org/Graphics/SVG/1.1/DTD/svg11.dtd">
<svg version="1.1" id="レイヤー_1" xmlns="http://www.w3.org/2000/svg" xmlns:xlink="http://www.w3.org/1999/xlink" x="0px"
	 y="0px" width="28.347px" height="28.347px" viewBox="0 0 28.347 28.347" enable-background="new 0 0 28.347 28.347"
	 xml:space="preserve">
<g>
	<g>
		<g>
			<path fill="#E55457" d="M13.343,8.559v1.589c0,0.101-0.082,0.184-0.185,0.184h-0.049c-0.101,0-0.184-0.083-0.184-0.184V8.552
				c0-0.262-0.176-0.34-0.345-0.34s-0.345,0.079-0.345,0.34v1.596c0,0.101-0.083,0.184-0.184,0.184h-0.05
				c-0.102,0-0.184-0.083-0.184-0.184V8.559c0-0.468-0.668-0.453-0.668,0.005c0,0.548,0,1.517,0,1.517
				c-0.003,0.842,0.198,1.062,0.53,1.324c0.268,0.211,0.497,0.333,0.497,0.857v3.377h0.805v-3.377c0-0.525,0.229-0.646,0.497-0.857
				c0.332-0.262,0.533-0.481,0.53-1.324c0,0,0-0.968,0-1.517C14.011,8.106,13.343,8.09,13.343,8.559z"/>
		</g>
		<g>
			<path fill="#E55457" d="M15.933,8.717c-0.171,0.479-0.663,1.602-0.694,2.594c-0.048,1.539,0.896,1.312,0.913,2.32v2.017h0.8
				l0.005,0.01c0,0,0-0.004,0-0.01c0-0.135,0-1.739,0-3.377c0-1.62,0-3.269,0-3.554C16.956,8.133,16.199,7.971,15.933,8.717z"/>
		</g>
	</g>
	<g>
		<path fill="#E55457" d="M14.174,24.152c-5.503,0-9.979-4.477-9.979-9.979c0-5.503,4.477-9.979,9.979-9.979
			c5.502,0,9.979,4.477,9.979,9.979C24.152,19.676,19.676,24.152,14.174,24.152z M14.174,5.375c-4.852,0-8.798,3.947-8.798,8.799
			c0,4.851,3.946,8.797,8.798,8.797c4.851,0,8.798-3.946,8.798-8.797C22.972,9.322,19.024,5.375,14.174,5.375z"/>
	</g>
	<g>
		<path fill="#E55457" d="M9.557,17.756v0.23H8.904v1.705H8.641v-1.705H7.987v-0.23H9.557z"/>
		<path fill="#E55457" d="M10.522,18.838c0.055-0.008,0.092-0.029,0.11-0.068c0.01-0.021,0.016-0.052,0.016-0.092
			c0-0.081-0.029-0.14-0.087-0.176c-0.057-0.037-0.14-0.056-0.246-0.056c-0.124,0-0.212,0.034-0.263,0.101
			c-0.029,0.037-0.048,0.092-0.057,0.166H9.774c0.005-0.175,0.061-0.296,0.169-0.364s0.234-0.103,0.377-0.103
			c0.166,0,0.301,0.031,0.404,0.095c0.103,0.063,0.154,0.162,0.154,0.296v0.812c0,0.024,0.005,0.045,0.015,0.059
			c0.011,0.016,0.032,0.023,0.064,0.023c0.01,0,0.022-0.001,0.035-0.002c0.014-0.002,0.027-0.004,0.042-0.006v0.175
			c-0.036,0.011-0.064,0.017-0.084,0.021c-0.02,0.002-0.046,0.004-0.079,0.004c-0.082,0-0.141-0.029-0.178-0.088
			c-0.02-0.03-0.033-0.074-0.041-0.131c-0.048,0.064-0.118,0.119-0.208,0.166c-0.091,0.046-0.19,0.069-0.299,0.069
			c-0.131,0-0.238-0.04-0.321-0.119S9.7,19.441,9.7,19.322c0-0.131,0.042-0.232,0.123-0.305c0.082-0.071,0.188-0.115,0.321-0.133
			L10.522,18.838z M10.023,19.479c0.051,0.039,0.109,0.059,0.179,0.059c0.083,0,0.163-0.02,0.242-0.058
			c0.132-0.063,0.197-0.169,0.197-0.314v-0.19c-0.029,0.018-0.066,0.033-0.112,0.047c-0.045,0.012-0.09,0.021-0.134,0.025
			l-0.144,0.019c-0.086,0.012-0.15,0.029-0.193,0.054c-0.073,0.041-0.11,0.107-0.11,0.197C9.948,19.385,9.974,19.439,10.023,19.479z
			"/>
		<path fill="#E55457" d="M11.248,17.75h0.23v0.701c0.052-0.066,0.113-0.119,0.187-0.154c0.072-0.035,0.15-0.053,0.235-0.053
			c0.176,0,0.319,0.06,0.429,0.181c0.11,0.12,0.165,0.299,0.165,0.534c0,0.223-0.054,0.408-0.163,0.557
			c-0.108,0.146-0.259,0.221-0.45,0.221c-0.107,0-0.198-0.025-0.273-0.078c-0.044-0.03-0.091-0.08-0.141-0.146v0.18h-0.219V17.75z
			 M12.154,19.374c0.064-0.103,0.096-0.236,0.096-0.403c0-0.148-0.031-0.271-0.096-0.369c-0.063-0.098-0.157-0.146-0.282-0.146
			c-0.108,0-0.203,0.041-0.285,0.121c-0.081,0.079-0.122,0.211-0.122,0.395c0,0.133,0.018,0.24,0.051,0.323
			c0.062,0.155,0.18,0.233,0.351,0.233C11.994,19.527,12.091,19.477,12.154,19.374z"/>
		<path fill="#E55457" d="M12.774,17.756h0.237v1.936h-0.237V17.756z"/>
		<path fill="#E55457" d="M14.239,18.319c0.094,0.047,0.165,0.108,0.214,0.183c0.047,0.071,0.078,0.154,0.095,0.249
			c0.014,0.065,0.021,0.169,0.021,0.312h-1.026c0.004,0.143,0.037,0.258,0.101,0.345c0.062,0.087,0.159,0.13,0.291,0.13
			c0.123,0,0.222-0.041,0.294-0.123c0.042-0.047,0.07-0.103,0.088-0.165h0.233c-0.007,0.052-0.027,0.109-0.062,0.173
			c-0.035,0.064-0.073,0.116-0.116,0.156c-0.071,0.07-0.16,0.118-0.266,0.143c-0.057,0.014-0.12,0.021-0.192,0.021
			c-0.175,0-0.322-0.064-0.443-0.192s-0.183-0.307-0.183-0.536c0-0.227,0.062-0.411,0.184-0.553
			c0.122-0.141,0.282-0.213,0.479-0.213C14.05,18.248,14.146,18.272,14.239,18.319z M14.324,18.873
			c-0.01-0.103-0.031-0.185-0.066-0.246c-0.064-0.114-0.172-0.172-0.322-0.172c-0.108,0-0.199,0.04-0.272,0.119
			c-0.073,0.078-0.111,0.178-0.116,0.299H14.324z"/>
		<path fill="#E55457" d="M14.979,18.281l0.271,1.111l0.275-1.111h0.266l0.277,1.104l0.289-1.104h0.236l-0.409,1.41h-0.246
			L15.65,18.6l-0.277,1.092h-0.247l-0.406-1.41H14.979z"/>
		<path fill="#E55457" d="M17.573,18.838c0.055-0.008,0.092-0.029,0.11-0.068c0.01-0.021,0.016-0.052,0.016-0.092
			c0-0.081-0.028-0.14-0.087-0.176c-0.057-0.037-0.14-0.056-0.246-0.056c-0.124,0-0.211,0.034-0.263,0.101
			c-0.029,0.037-0.048,0.092-0.057,0.166h-0.222c0.005-0.175,0.061-0.296,0.17-0.364c0.108-0.068,0.233-0.103,0.377-0.103
			c0.165,0,0.3,0.031,0.403,0.095c0.103,0.063,0.154,0.162,0.154,0.296v0.812c0,0.024,0.005,0.045,0.016,0.059
			c0.01,0.016,0.031,0.023,0.063,0.023c0.011,0,0.022-0.001,0.035-0.002c0.014-0.002,0.027-0.004,0.043-0.006v0.175
			c-0.037,0.011-0.065,0.017-0.085,0.021c-0.02,0.002-0.046,0.004-0.079,0.004c-0.081,0-0.141-0.029-0.178-0.088
			c-0.02-0.03-0.033-0.074-0.041-0.131c-0.048,0.064-0.117,0.119-0.208,0.166c-0.091,0.046-0.19,0.069-0.299,0.069
			c-0.131,0-0.238-0.04-0.321-0.119s-0.124-0.179-0.124-0.298c0-0.131,0.041-0.232,0.122-0.305c0.082-0.071,0.189-0.115,0.322-0.133
			L17.573,18.838z M17.074,19.479c0.051,0.039,0.109,0.059,0.178,0.059c0.084,0,0.164-0.02,0.242-0.058
			c0.133-0.063,0.198-0.169,0.198-0.314v-0.19c-0.028,0.018-0.066,0.033-0.112,0.047c-0.045,0.012-0.09,0.021-0.134,0.025
			l-0.143,0.019c-0.087,0.012-0.151,0.029-0.194,0.054c-0.073,0.041-0.11,0.107-0.11,0.197
			C16.999,19.385,17.024,19.439,17.074,19.479z"/>
		<path fill="#E55457" d="M18.325,18.281h0.225v0.242c0.019-0.047,0.064-0.104,0.136-0.172c0.072-0.068,0.155-0.104,0.249-0.104
			c0.005,0,0.013,0.001,0.022,0.002c0.011,0.001,0.028,0.003,0.055,0.006v0.25c-0.014-0.002-0.027-0.004-0.039-0.006
			c-0.012,0-0.024-0.001-0.039-0.001c-0.119,0-0.211,0.038-0.275,0.116c-0.064,0.076-0.097,0.164-0.097,0.265v0.812h-0.236V18.281z"
			/>
		<path fill="#E55457" d="M20.089,18.319c0.093,0.047,0.164,0.108,0.213,0.183c0.047,0.071,0.079,0.154,0.095,0.249
			c0.014,0.065,0.021,0.169,0.021,0.312h-1.026c0.005,0.143,0.038,0.258,0.102,0.345c0.062,0.087,0.159,0.13,0.291,0.13
			c0.123,0,0.221-0.041,0.294-0.123c0.041-0.047,0.07-0.103,0.087-0.165h0.233c-0.006,0.052-0.026,0.109-0.062,0.173
			c-0.034,0.064-0.073,0.116-0.115,0.156c-0.072,0.07-0.16,0.118-0.267,0.143c-0.056,0.014-0.12,0.021-0.191,0.021
			c-0.175,0-0.322-0.064-0.444-0.192c-0.121-0.128-0.182-0.307-0.182-0.536c0-0.227,0.062-0.411,0.184-0.553
			c0.122-0.141,0.281-0.213,0.479-0.213C19.898,18.248,19.995,18.272,20.089,18.319z M20.174,18.873
			c-0.01-0.103-0.032-0.185-0.067-0.246c-0.063-0.114-0.172-0.172-0.322-0.172c-0.108,0-0.198,0.04-0.271,0.119
			c-0.073,0.078-0.112,0.178-0.116,0.299H20.174z"/>
	</g>
</g>
</svg>
